<svg width="1342" height="867" viewBox="0 0 1342 867" fill="none" xmlns="http://www.w3.org/2000/svg">
<path d="M1273.96 854.615H1188.92V668.83H908.629V504.1L1145.28 12.3867H1273.96V537.541H1342V668.83H1273.96V854.615ZM989.239 537.541H1188.92V130.051L989.239 537.541Z" fill="#FFE8EA"/>
<path d="M670.935 867C598.46 867 543.98 830.256 507.496 756.767C471.012 683.279 452.77 575.523 452.77 433.5C452.77 293.954 471.012 187.024 507.496 112.71C543.98 37.57 598.46 0 670.935 0C743.903 0 798.383 37.57 834.374 112.71C870.858 187.024 889.1 293.954 889.1 433.5C889.1 575.523 870.858 683.279 834.374 756.767C798.383 830.256 743.903 867 670.935 867ZM670.935 730.757C713.335 730.757 744.643 706.399 764.857 657.681C785.564 608.139 795.918 533.411 795.918 433.5C795.918 332.763 785.564 258.036 764.857 209.319C744.643 160.601 713.335 136.243 670.935 136.243C629.027 136.243 597.72 160.601 577.013 209.319C556.306 258.036 545.952 332.763 545.952 433.5C545.952 533.411 556.306 608.139 577.013 657.681C597.72 706.399 629.027 730.757 670.935 730.757Z" fill="#FFE8EA"/>
<path d="M365.335 854.615H280.287V668.83H0V504.1L236.654 12.3867H365.335V537.541H433.373V668.83H365.335V854.615ZM80.6103 537.541H280.287V130.051L80.6103 537.541Z" fill="#FFE8EA"/>
</svg>
