<svg width="71" height="15" viewBox="0 0 71 15" fill="none" xmlns="http://www.w3.org/2000/svg">
<path d="M0.6 14V0.4H10.3V2.56H3.04V6.1H10.02V8.2H3.04V11.84H10.24V14H0.6ZM11.4591 14V11.36H14.0191V14H11.4591ZM17.2358 14L11.9958 0.4H14.6158L18.6758 11.24L22.6358 0.4H25.1958L20.0158 14H17.2358ZM31.4008 14.2C30.4141 14.2 29.5074 14.0533 28.6808 13.76C27.8674 13.4533 27.1674 13.0067 26.5808 12.42C25.9941 11.8333 25.5341 11.1067 25.2008 10.24C24.8808 9.36 24.7208 8.34667 24.7208 7.2C24.7208 6.08 24.8808 5.08 25.2008 4.2C25.5341 3.32 25.9941 2.58667 26.5808 2C27.1674 1.41333 27.8674 0.966666 28.6808 0.659999C29.5074 0.353332 30.4141 0.199999 31.4008 0.199999C32.4008 0.199999 33.3141 0.353332 34.1408 0.659999C34.9674 0.966666 35.6674 1.41333 36.2408 2C36.8274 2.58667 37.2808 3.32 37.6008 4.2C37.9341 5.08 38.1008 6.08 38.1008 7.2C38.1008 8.34667 37.9341 9.36 37.6008 10.24C37.2808 11.1067 36.8274 11.8333 36.2408 12.42C35.6674 13.0067 34.9674 13.4533 34.1408 13.76C33.3141 14.0533 32.4008 14.2 31.4008 14.2ZM31.4008 12.02C32.7474 12.02 33.7874 11.5867 34.5208 10.72C35.2541 9.84 35.6208 8.66667 35.6208 7.2C35.6208 5.72 35.2541 4.54667 34.5208 3.68C33.7874 2.81333 32.7474 2.38 31.4008 2.38C30.0674 2.38 29.0274 2.81333 28.2808 3.68C27.5474 4.54667 27.1808 5.72 27.1808 7.2C27.1808 8.66667 27.5474 9.84 28.2808 10.72C29.0274 11.5867 30.0674 12.02 31.4008 12.02ZM49.0114 11.72V14H39.4914V0.4H41.9314V11.72H49.0114ZM52.0342 14L46.7942 0.4H49.4142L53.4742 11.24L57.4342 0.4H59.9942L54.8142 14H52.0342ZM60.4898 14V0.4H70.1898V2.56H62.9298V6.1H69.9098V8.2H62.9298V11.84H70.1298V14H60.4898Z" fill="#F8F8F8"/>
</svg>
