<svg width="112" height="24" viewBox="0 0 112 24" fill="none" xmlns="http://www.w3.org/2000/svg">
<path d="M96.3838 23.0002V1.24023H111.904V4.69623H100.288V10.3602H111.456V13.7202H100.288V19.5442H111.808V23.0002H96.3838Z" fill="#232323"/>
<path d="M82.8547 23.0002L74.4707 1.24023H78.6627L85.1587 18.5842L91.4947 1.24023H95.5907L87.3027 23.0002H82.8547Z" fill="#232323"/>
<path d="M78.0181 19.3522V23.0002H62.7861V1.24023H66.6901V19.3522H78.0181Z" fill="#232323"/>
<path d="M49.8413 23.3199C48.2627 23.3199 46.812 23.0853 45.4893 22.6159C44.188 22.1253 43.068 21.4106 42.1293 20.4719C41.1907 19.5333 40.4547 18.3706 39.9213 16.9839C39.4093 15.5759 39.1533 13.9546 39.1533 12.1199C39.1533 10.3279 39.4093 8.72792 39.9213 7.31992C40.4547 5.91192 41.1907 4.73859 42.1293 3.79992C43.068 2.86126 44.188 2.14659 45.4893 1.65592C46.812 1.16526 48.2627 0.919922 49.8413 0.919922C51.4413 0.919922 52.9027 1.16526 54.2253 1.65592C55.548 2.14659 56.668 2.86126 57.5853 3.79992C58.524 4.73859 59.2493 5.91192 59.7613 7.31992C60.2947 8.72792 60.5613 10.3279 60.5613 12.1199C60.5613 13.9546 60.2947 15.5759 59.7613 16.9839C59.2493 18.3706 58.524 19.5333 57.5853 20.4719C56.668 21.4106 55.548 22.1253 54.2253 22.6159C52.9027 23.0853 51.4413 23.3199 49.8413 23.3199ZM49.8413 19.8319C51.996 19.8319 53.66 19.1386 54.8333 17.7519C56.0067 16.3439 56.5933 14.4666 56.5933 12.1199C56.5933 9.75192 56.0067 7.87459 54.8333 6.48792C53.66 5.10126 51.996 4.40792 49.8413 4.40792C47.708 4.40792 46.044 5.10126 44.8493 6.48792C43.676 7.87459 43.0893 9.75192 43.0893 12.1199C43.0893 14.4666 43.676 16.3439 44.8493 17.7519C46.044 19.1386 47.708 19.8319 49.8413 19.8319Z" fill="#232323"/>
<path d="M27.177 23.0002L18.793 1.24023H22.985L29.481 18.5842L35.817 1.24023H39.913L31.625 23.0002H27.177Z" fill="#232323"/>
<path d="M17.9346 22.9994V18.7754H22.0306V22.9994H17.9346Z" fill="#232323"/>
<path d="M0.55957 23.0002V1.24023H16.0796V4.69623H4.46357V10.3602H15.6316V13.7202H4.46357V19.5442H15.9836V23.0002H0.55957Z" fill="#232323"/>
</svg>
